<svg xmlns="http://www.w3.org/2000/svg" width="18" height="18" viewBox="0 0 18 18">
    <g fill="none" fill-rule="evenodd">
        <g fill="#AAA">
            <g>
                <g>
                    <g>
                        <g>
                            <g>
                                <path d="M12 17.866V17c0-1.103-.897-2-2-2s-2 .897-2 2v.866C4.607 17.4 2 15.77 2 14v-2.717C3.494 12.895 6.512 14 10 14c3.488 0 6.506-1.105 8-2.717V14c0 1.77-2.608 3.4-6 3.866M10 5c4.715 0 8 2.108 8 4s-3.285 4-8 4-8-2.108-8-4 3.285-4 8-4m-.5-4l2 1-1 .5v1.514c1.88.058 3.602.433 5 1.034V2l2 1-1 .5v2.048C18.045 6.445 19 7.66 19 9v5c0 2.574-3.5 4.693-8 4.97V17c0-.552-.448-1-1-1-.553 0-1 .448-1 1v1.97c-4.5-.277-8-2.396-8-4.97V9c0-1.34.955-2.555 2.5-3.452V2l2 1-1 .5v1.548c1.398-.6 3.121-.976 5-1.034V1zm.5 5.5C7.238 6.5 5 7.619 5 9c0 .572.398 1.093 1.046 1.513l.167.103c.917.536 2.264.884 3.787.884 1.414 0 2.676-.3 3.583-.772l.203-.112.001-.001C14.533 10.179 15 9.619 15 9c0-1.381-2.239-2.5-5-2.5zm0 3c1.17 0 2.114.217 2.794.5-.683.283-1.627.5-2.794.5s-2.11-.217-2.794-.5c.68-.283 1.625-.5 2.794-.5zm0-2c2.481 0 4 .971 4 1.5 0 .11-.08.241-.207.377C12.877 8.841 11.52 8.5 10 8.5s-2.877.341-3.793.877C6.08 9.241 6 9.11 6 9c0-.529 1.52-1.5 4-1.5z" transform="translate(-438 -709) translate(190 150) translate(221 122) translate(10 303) translate(1 115) translate(15 18)"/>
                            </g>
                        </g>
                    </g>
                </g>
            </g>
        </g>
    </g>
</svg>
